<svg width="20" height="20" viewBox="0 0 20 20" fill="none" xmlns="http://www.w3.org/2000/svg">
<path fill-rule="evenodd" clip-rule="evenodd" d="M9.675 0.0153916C9.54131 -0.00833877 9.40419 -0.00459614 9.272 0.0263916C4.09 0.400392 0 4.72239 0 10.0004C0 15.5234 4.477 20.0004 10 20.0004C14.356 20.0004 18.058 17.2164 19.43 13.3334C19.4854 13.1764 19.5008 13.0081 19.4747 12.8437C19.4486 12.6793 19.3819 12.524 19.2806 12.3919C19.1793 12.2598 19.0466 12.155 18.8946 12.0872C18.7425 12.0194 18.576 11.9906 18.41 12.0034C18.33 12.0094 18.305 12.0084 18.283 12.0084H18.282L18.254 12.0064C18.1694 12.0022 18.0847 12.0002 18 12.0004C15.8783 12.0004 13.8434 11.1575 12.3431 9.65725C10.8429 8.15696 10 6.12212 10 4.00039C10 3.04839 10.121 2.24839 10.404 1.44239C10.4673 1.30859 10.5001 1.1624 10.5 1.01439V1.00039C10.5001 0.765451 10.4175 0.537975 10.2666 0.357864C10.1158 0.177752 9.90632 0.0565063 9.675 0.0153916Z" fill="black"/>
</svg>
