<svg width="796" height="154" viewBox="0 0 796 154" fill="none" xmlns="http://www.w3.org/2000/svg">
<g clip-path="url(#clip0_1514_8038)">
<rect x="-4.1543" y="-12.7646" width="58.3915" height="123.002" rx="21.3889" transform="rotate(3 -4.1543 -12.7646)" fill="#F76582"/>
<rect x="165.96" y="-3.84961" width="52.9719" height="106.911" rx="21.3889" transform="rotate(93 165.96 -3.84961)" fill="#ABB3FE"/>
<rect x="156.497" y="176.591" width="58.3915" height="123.002" rx="21.3889" transform="rotate(-177 156.497 176.591)" fill="#7056F5"/>
<rect x="-13.6064" y="167.676" width="52.9719" height="106.911" rx="21.3889" transform="rotate(-87 -13.6064 167.676)" fill="#F2AB93"/>
</g>
<path d="M181.672 32.5048L210.556 109.505L239.439 32.5048H251.826L242.373 57.6716L261.802 109.505L290.685 32.5048H303.008L267.996 126H255.673L236.179 74.1017L216.749 126H204.427L169.35 32.5048H181.672ZM361.752 126H350.211V117.589C347.212 120.241 343.8 122.305 339.975 123.783C336.194 125.261 332.173 126 327.913 126C321.654 126 315.96 124.479 310.831 121.436C305.702 118.393 301.617 114.308 298.574 109.179C295.531 104.05 294.01 98.3774 294.01 92.1618C294.01 85.9027 295.531 80.2304 298.574 75.1449C301.617 70.0159 305.702 65.9301 310.831 62.8875C315.96 59.8449 321.654 58.3236 327.913 58.3236C334.086 58.3236 339.714 59.8232 344.8 62.8223C349.886 65.8215 353.928 69.842 356.927 74.8841C359.97 79.8827 361.578 85.5115 361.752 91.7706V126ZM327.913 69.8638C323.784 69.8638 320.024 70.8635 316.634 72.8629C313.287 74.8624 310.614 77.5572 308.615 80.9476C306.615 84.2945 305.615 88.0325 305.615 92.1618C305.615 96.2476 306.615 99.9857 308.615 103.376C310.614 106.723 313.287 109.396 316.634 111.395C320.024 113.395 323.784 114.395 327.913 114.395C331.999 114.395 335.716 113.395 339.062 111.395C342.453 109.396 345.148 106.723 347.147 103.376C349.147 99.9857 350.146 96.2476 350.146 92.1618C350.146 88.0325 349.147 84.2945 347.147 80.9476C345.148 77.5572 342.453 74.8624 339.062 72.8629C335.716 70.8635 331.999 69.8638 327.913 69.8638ZM371.988 32.5048H383.528V58.7148C383.528 80.752 383.419 103.18 383.202 126H371.597C371.597 113.178 371.662 97.7906 371.792 79.8392C371.923 61.6705 371.988 45.8923 371.988 32.5048ZM393.112 32.5048H404.653V58.7148C404.653 80.752 404.544 103.18 404.327 126H392.721C392.721 113.178 392.786 97.7906 392.917 79.8392C393.047 61.6705 393.112 45.8923 393.112 32.5048ZM460.332 73.5149H494.953C495.605 73.4715 496.583 73.4497 497.887 73.4497C499.234 73.4497 500.712 73.4497 502.32 73.4497L506.689 73.5149C506.863 75.384 506.95 77.1878 506.95 78.9264C506.95 87.3153 504.972 95.0957 501.016 102.268C497.061 109.439 491.367 115.199 483.934 119.545C476.545 123.848 468.678 126 460.332 126C451.639 125.87 443.772 123.74 436.73 119.611C429.732 115.438 424.125 109.831 419.909 102.789C415.693 95.7477 413.585 87.9239 413.585 79.3176C413.585 70.7114 415.693 62.8658 419.909 55.7808C424.125 48.6959 429.754 43.067 436.796 38.8943C443.881 34.6781 451.726 32.57 460.332 32.57C467.939 32.57 474.959 34.2435 481.392 37.5903C487.825 40.8938 493.214 45.3707 497.561 51.0213L487.911 57.5412C484.652 53.4119 480.631 50.152 475.85 47.7614C471.112 45.3707 465.939 44.1754 460.332 44.1754C453.856 44.1754 447.966 45.7619 442.663 48.9349C437.361 52.0645 433.123 56.3024 429.95 61.6487C426.777 66.9516 425.19 72.8412 425.19 79.3176C425.19 85.7506 426.777 91.6402 429.95 96.9865C433.123 102.289 437.339 106.506 442.598 109.635C447.858 112.765 453.769 114.351 460.332 114.395C467.852 114.264 474.372 112.308 479.892 108.527C485.456 104.702 489.607 99.7031 492.345 93.531C493.519 90.8361 494.344 88.0108 494.823 85.0551H460.332V73.5149ZM549.264 58.3236C555.479 58.3236 561.152 59.8449 566.281 62.8875C571.41 65.9301 575.495 70.0159 578.538 75.1449C581.581 80.2304 583.102 85.9027 583.102 92.1618C583.102 98.3774 581.581 104.05 578.538 109.179C575.495 114.308 571.41 118.393 566.281 121.436C561.152 124.479 555.479 126 549.264 126C543.048 126 537.376 124.479 532.247 121.436C527.118 118.393 523.032 114.308 519.989 109.179C516.947 104.05 515.425 98.3774 515.425 92.1618C515.425 85.9027 516.947 80.2304 519.989 75.1449C523.032 70.0159 527.118 65.9301 532.247 62.8875C537.376 59.8449 543.048 58.3236 549.264 58.3236ZM549.264 69.8638C545.178 69.8638 541.44 70.8635 538.049 72.8629C534.703 74.8624 532.029 77.5572 530.03 80.9476C528.031 84.2945 527.031 88.0325 527.031 92.1618C527.031 96.2476 528.031 99.9857 530.03 103.376C532.029 106.723 534.703 109.396 538.049 111.395C541.44 113.395 545.178 114.395 549.264 114.395C553.349 114.395 557.066 113.395 560.413 111.395C563.803 109.396 566.498 106.723 568.497 103.376C570.54 99.9857 571.562 96.2476 571.562 92.1618C571.562 88.0325 570.54 84.2945 568.497 80.9476C566.498 77.5572 563.803 74.8624 560.413 72.8629C557.066 70.8635 553.349 69.8638 549.264 69.8638ZM624.112 126C617.896 126 612.224 124.479 607.095 121.436C601.966 118.393 597.88 114.308 594.838 109.179C591.795 104.05 590.274 98.3774 590.274 92.1618C590.274 85.9027 591.795 80.2304 594.838 75.1449C597.88 70.0159 601.966 65.9301 607.095 62.8875C612.224 59.8449 617.896 58.3236 624.112 58.3236C628.372 58.3236 632.392 59.0625 636.174 60.5403C639.999 61.9747 643.411 64.0176 646.41 66.669V32.3744H657.95V62.2355C657.994 72.1892 658.015 82.1646 658.015 92.1618C658.015 98.3774 656.472 104.05 653.386 109.179C650.344 114.308 646.258 118.393 641.129 121.436C636.043 124.479 630.371 126 624.112 126ZM624.112 114.395C628.241 114.395 631.979 113.395 635.326 111.395C638.716 109.396 641.411 106.723 643.411 103.376C645.41 99.9857 646.41 96.2476 646.41 92.1618C646.41 88.0325 645.41 84.2945 643.411 80.9476C641.411 77.5572 638.716 74.8624 635.326 72.8629C631.979 70.8635 628.241 69.8638 624.112 69.8638C620.026 69.8638 616.288 70.8635 612.898 72.8629C609.551 74.8624 606.878 77.5572 604.878 80.9476C602.879 84.2945 601.879 88.0325 601.879 92.1618C601.879 96.2476 602.879 99.9857 604.878 103.376C606.878 106.723 609.551 109.396 612.898 111.395C616.288 113.395 620.026 114.395 624.112 114.395ZM700.395 126C694.179 126 688.507 124.479 683.378 121.436C678.249 118.393 674.163 114.308 671.12 109.179C668.078 104.05 666.556 98.3774 666.556 92.1618C666.556 85.9027 668.078 80.2304 671.12 75.1449C674.163 70.0159 678.249 65.9301 683.378 62.8875C688.507 59.8449 694.179 58.3236 700.395 58.3236C704.654 58.3236 708.675 59.0625 712.456 60.5403C716.281 61.9747 719.693 64.0176 722.693 66.669V32.3744H734.233V62.2355C734.276 72.1892 734.298 82.1646 734.298 92.1618C734.298 98.3774 732.755 104.05 729.669 109.179C726.626 114.308 722.54 118.393 717.411 121.436C712.326 124.479 706.654 126 700.395 126ZM700.395 114.395C704.524 114.395 708.262 113.395 711.609 111.395C714.999 109.396 717.694 106.723 719.693 103.376C721.693 99.9857 722.693 96.2476 722.693 92.1618C722.693 88.0325 721.693 84.2945 719.693 80.9476C717.694 77.5572 714.999 74.8624 711.609 72.8629C708.262 70.8635 704.524 69.8638 700.395 69.8638C696.309 69.8638 692.571 70.8635 689.18 72.8629C685.833 74.8624 683.16 77.5572 681.161 80.9476C679.161 84.2945 678.162 88.0325 678.162 92.1618C678.162 96.2476 679.161 99.9857 681.161 103.376C683.16 106.723 685.833 109.396 689.18 111.395C692.571 113.395 696.309 114.395 700.395 114.395ZM784.175 76.8401C780.176 73.4063 775.96 71.3851 771.527 70.7766C770.092 70.5592 768.723 70.4506 767.419 70.4506C764.724 70.4506 762.333 70.8852 760.247 71.7545C757.639 72.7977 756.096 74.2538 755.618 76.1229C755.575 76.3837 755.553 76.6227 755.553 76.8401C755.553 78.4483 756.748 80.1435 759.139 81.9256C761.356 83.4469 763.703 84.6205 766.18 85.4463C768.658 86.2722 771.157 86.9893 773.678 87.5979C776.851 88.3803 779.937 89.3582 782.936 90.5318C785.935 91.7054 788.63 93.5527 791.021 96.0737C794.107 99.6379 795.65 103.267 795.65 106.962C795.65 113.047 792.738 117.872 786.913 121.436C781.915 124.479 776.656 126 771.135 126C761.921 126 753.619 122.479 746.229 115.438L754.705 107.484C758.704 110.917 762.92 112.938 767.354 113.547C768.788 113.764 770.157 113.873 771.461 113.873C774.156 113.873 776.547 113.438 778.633 112.569C781.241 111.482 782.784 110.026 783.262 108.201C783.306 107.94 783.328 107.701 783.328 107.484C783.328 105.875 782.132 104.18 779.742 102.398C777.916 101.181 775.873 100.203 773.613 99.4641C771.396 98.6817 769.049 97.9645 766.571 97.3125C763.963 96.617 761.356 95.8347 758.748 94.9653C756.183 94.0526 753.749 92.8355 751.445 91.3142C746.012 87.4023 743.295 82.5124 743.295 76.6445V76.3185C743.295 71.4068 746.186 66.9298 751.967 62.8875C756.965 59.8449 762.225 58.3236 767.745 58.3236C778.003 58.3236 786.305 61.8443 792.651 68.8858L784.175 76.8401Z" fill="black"/>
<defs>
<clipPath id="clip0_1514_8038">
<rect width="154" height="154" rx="28.5185" fill="white"/>
</clipPath>
</defs>
</svg>
